<svg width="20" height="18" viewBox="0 0 20 18" fill="none" xmlns="http://www.w3.org/2000/svg">
<path d="M7.7606 11.3668C7.1856 10.7928 6.8356 10.0128 6.8356 9.1378C6.8356 7.3848 8.2476 5.9718 9.9996 5.9718C10.8666 5.9718 11.6646 6.3228 12.2296 6.8968" stroke="#667085" stroke-linecap="round" stroke-linejoin="round"/>
<path d="M13.1048 9.6989C12.8728 10.9889 11.8568 12.0069 10.5678 12.2409" stroke="#667085" stroke-linecap="round" stroke-linejoin="round"/>
<path d="M4.6546 14.4723C3.0676 13.2263 1.7236 11.4063 0.749603 9.1373C1.7336 6.8583 3.0866 5.0283 4.6836 3.7723C6.2706 2.5163 8.1016 1.8343 9.9996 1.8343C11.9086 1.8343 13.7386 2.5263 15.3356 3.7913" stroke="#667085" stroke-linecap="round" stroke-linejoin="round"/>
<path d="M17.4476 5.9908C18.1356 6.9048 18.7406 7.9598 19.2496 9.1368C17.2826 13.6938 13.8066 16.4388 9.99961 16.4388C9.13661 16.4388 8.28561 16.2988 7.46761 16.0258" stroke="#667085" stroke-linecap="round" stroke-linejoin="round"/>
<path d="M17.887 1.2496L2.11301 17.0236" stroke="#667085" stroke-linecap="round" stroke-linejoin="round"/>
</svg>
