<svg width="20" height="16" viewBox="0 0 20 16" fill="none" xmlns="http://www.w3.org/2000/svg">
<path d="M7.7606 10.3668C7.1856 9.7928 6.8356 9.0128 6.8356 8.1378C6.8356 6.3848 8.2476 4.9718 9.9996 4.9718C10.8666 4.9718 11.6646 5.3228 12.2296 5.8968" stroke="#667085" stroke-linecap="round" stroke-linejoin="round"/>
<path d="M13.1048 8.6989C12.8728 9.9889 11.8568 11.0069 10.5678 11.2409" stroke="#667085" stroke-linecap="round" stroke-linejoin="round"/>
<path d="M4.6546 13.4723C3.0676 12.2263 1.7236 10.4063 0.749603 8.1373C1.7336 5.8583 3.0866 4.0283 4.6836 2.7723C6.2706 1.5163 8.1016 0.8343 9.9996 0.8343C11.9086 0.8343 13.7386 1.5263 15.3356 2.7913" stroke="#667085" stroke-linecap="round" stroke-linejoin="round"/>
<path d="M17.4476 4.9908C18.1356 5.9048 18.7406 6.9598 19.2496 8.1368C17.2826 12.6938 13.8066 15.4388 9.99961 15.4388C9.13661 15.4388 8.28561 15.2988 7.46761 15.0258" stroke="#667085" stroke-linecap="round" stroke-linejoin="round"/>
</svg>
